<?xml version="1.0" encoding="utf-8"?>
<!-- Generator: Adobe Illustrator 18.0.0, SVG Export Plug-In . SVG Version: 6.00 Build 0)  -->
<!DOCTYPE svg PUBLIC "-//W3C//DTD SVG 1.1//EN" "http://www.w3.org/Graphics/SVG/1.1/DTD/svg11.dtd">
<svg version="1.1" id="Layer_1" xmlns="http://www.w3.org/2000/svg" xmlns:xlink="http://www.w3.org/1999/xlink" x="0px" y="0px"
	 viewBox="0 0 600 200" enable-background="new 0 0 600 200" xml:space="preserve">
<g>
	<path fill="#C8951A" d="M110.7,150.1v-4.6c-1.2-0.6-2.4-1.1-3.7-1.4c-1.3-0.3-2.7-0.5-4-0.5c-2.3,0-4.5,0.5-6.6,1.4
		c-2.1,0.9-3.9,2.1-5.4,3.7c-1.5,1.6-2.8,3.4-3.6,5.4s-1.3,4.3-1.3,6.7c0,2.3,0.4,4.5,1.3,6.6c0.9,2.1,2.1,3.9,3.6,5.4
		c1.5,1.5,3.3,2.8,5.4,3.7c2,0.9,4.2,1.3,6.6,1.3c1.6,0,3.1-0.2,4.6-0.6c1.4-0.4,2.8-1,4.1-1.7l1.2,1.8c-1.4,0.8-3,1.5-4.6,2
		c-1.6,0.5-3.4,0.7-5.2,0.7c-2.6,0-5.1-0.5-7.5-1.5s-4.4-2.4-6.1-4.1s-3.1-3.8-4.1-6.1c-1-2.3-1.5-4.8-1.5-7.5
		c0-2.7,0.5-5.1,1.5-7.5s2.4-4.4,4.1-6.1s3.8-3.1,6.1-4.1c2.3-1,4.8-1.5,7.5-1.5c1.8,0,3.6,0.2,5.2,0.7c1.6,0.5,3.2,1.1,4.6,2v6
		H110.7z"/>
	<path fill="#C8951A" d="M142.9,160.7c0-2.7,0.5-5.1,1.5-7.5s2.4-4.4,4.1-6.1s3.8-3.1,6.1-4.1c2.3-1,4.8-1.5,7.5-1.5
		c2.7,0,5.1,0.5,7.5,1.5c2.3,1,4.4,2.4,6.1,4.1s3.1,3.8,4.1,6.1c1,2.3,1.5,4.8,1.5,7.5c0,2.6-0.5,5.1-1.5,7.5
		c-1,2.3-2.4,4.4-4.1,6.1s-3.8,3.1-6.1,4.1c-2.3,1-4.8,1.5-7.5,1.5c-2.6,0-5.1-0.5-7.5-1.5c-2.3-1-4.4-2.4-6.1-4.1s-3.1-3.8-4.1-6.1
		C143.4,165.8,142.9,163.3,142.9,160.7z M145,160.7c0,2.4,0.4,4.6,1.3,6.6c0.9,2.1,2.1,3.9,3.6,5.4c1.5,1.5,3.3,2.7,5.4,3.6
		c2.1,0.9,4.2,1.3,6.6,1.3c2.3,0,4.6-0.4,6.6-1.3c2.1-0.9,3.9-2.1,5.5-3.7c1.6-1.5,2.8-3.3,3.7-5.4c0.9-2.1,1.4-4.3,1.4-6.6
		c0-2.4-0.5-4.6-1.4-6.7s-2.1-3.9-3.7-5.5c-1.5-1.6-3.4-2.8-5.5-3.7c-2.1-0.9-4.3-1.3-6.6-1.3c-2.3,0-4.5,0.5-6.6,1.4
		c-2.1,0.9-3.9,2.1-5.4,3.7c-1.5,1.6-2.8,3.4-3.6,5.4C145.4,156.1,145,158.4,145,160.7z"/>
	<path fill="#C8951A" d="M254,141.8h5.6v2.1h-4.3v33.3h4.5v2.1H249v-2.1h4v-28.7c0,0,0-0.2,0-0.4c0-0.2,0-0.4,0.1-0.7
		c0-0.2,0-0.5,0-0.7c0-0.2,0-0.4,0-0.4c-0.1,0.2-0.2,0.4-0.4,0.6c-0.2,0.2-0.3,0.5-0.6,0.8c-0.8,1.1-1.9,2.5-3.2,4.2
		s-2.8,3.6-4.4,5.6c-1.6,2-3.1,4-4.7,6.1c-1.6,2.1-3.1,3.9-4.4,5.6c-2.5-3.2-4.6-6-6.3-8.2c-1.7-2.3-3.2-4.2-4.5-5.9
		c-1.3-1.7-2.4-3.1-3.3-4.3c-1-1.2-1.9-2.4-2.8-3.5l-0.6-1c0,0.4,0,0.8,0,1.1c0,0.3,0,0.7,0.1,1v28.7h4.2v2.1h-10.7v-2.1h4.3V144
		h-4.3v-2.1h5.6c0.4,0.5,1,1.3,1.8,2.3c0.8,1,1.7,2.2,2.7,3.5c1,1.3,2.1,2.8,3.3,4.3c1.2,1.6,2.4,3.1,3.6,4.7
		c1.2,1.6,2.5,3.2,3.7,4.7c1.2,1.5,2.3,3,3.3,4.3c3.1-4,6.2-8,9.2-11.9C247.8,149.8,250.9,145.8,254,141.8z"/>
	<path fill="#C8951A" d="M290.9,177.2h3.3V144h-3.3v-2.1h11.3c1.1,0,2.3,0.2,3.7,0.5c1.3,0.4,2.6,0.9,3.7,1.7
		c1.2,0.8,2.1,1.8,2.9,3.1c0.8,1.3,1.2,2.8,1.2,4.5c0,3.1-1,5.5-2.9,7.4c-2,1.8-4.8,2.7-8.5,2.7h-6v15.5h5.3v2.1h-10.7V177.2z
		 M296.3,159.6h5.6c1.9,0,3.4-0.3,4.7-0.8c1.2-0.5,2.2-1.1,3-1.9c0.7-0.8,1.3-1.6,1.5-2.6c0.3-0.9,0.4-1.8,0.4-2.7
		c0-1-0.2-2-0.7-2.9c-0.5-0.9-1.2-1.8-2-2.5c-0.9-0.7-1.9-1.3-3.1-1.7c-1.2-0.4-2.4-0.6-3.8-0.6h-5.7V159.6z"/>
	<path fill="#C8951A" d="M339.3,177.2h4.1c2.7-6.2,5.3-12.4,7.9-18.6c2.6-6.2,5.3-12.3,7.9-18.6c2.6,6.2,5.2,12.4,7.9,18.6
		c2.6,6.2,5.2,12.3,7.9,18.6h4.2v2.1h-10.3v-2.1h3.9c-1-2.3-2-4.6-3-6.9c-1-2.3-2-4.6-3-7h-15.2c-1,2.4-2,4.7-3,7
		c-1,2.3-2,4.6-3,6.9h3.9v2.1h-10.4V177.2z M359.6,146.6l-0.5-1.5c-0.1,0.1-0.2,0.4-0.3,0.8c-0.1,0.2-0.2,0.4-0.3,0.7
		c-0.4,0.9-0.8,2-1.3,3.1c-0.5,1.2-1,2.4-1.5,3.7s-1.1,2.6-1.6,3.9c-0.6,1.3-1.1,2.6-1.6,3.9h13.3L359.6,146.6z"/>
	<path fill="#C8951A" d="M410.3,177.2h4.3V144h-4.3v-2.1h5.7l28.4,32.9l1,1.4l-0.2-1.7V144h-4v-2.1H452v2.1h-4.5v37.2l-29.8-34.3
		l-1-1.2l0.2,1.5v30.1h4.2v2.1h-10.7V177.2z"/>
	<path fill="#C8951A" d="M496.1,177.2h4v-12.1c-2.1-3.5-4.3-7.1-6.4-10.6c-2.1-3.5-4.2-7.1-6.3-10.6h-4.2v-2.1H494v2.1h-3.9
		c3.6,5.9,7.1,11.8,10.6,17.7l0.6,1.5h0.1l0.6-1.5l10.6-17.7h-3.9v-2.1h10.8v2.1h-4.2c-2.1,3.6-4.2,7.1-6.3,10.6
		c-2.1,3.5-4.2,7-6.3,10.6v12.1h4.2v2.1h-10.8V177.2z"/>
</g>
<g>
	<path fill="#BEC997" d="M31.9,69.2v32.9H19.7V21.2h13.8c6.8,0,11.9,0.5,15.4,1.4c3.5,0.9,6.6,2.7,9.2,5.3c4.6,4.5,7,10.3,7,17.2
		c0,7.4-2.5,13.3-7.4,17.6S46,69.2,37.6,69.2H31.9z M31.9,57.9h4.6c11.2,0,16.8-4.3,16.8-12.9c0-8.4-5.8-12.5-17.4-12.5h-4V57.9z"/>
	<path fill="#BEC997" d="M150.2,69.2v32.9H138V21.2h13.8c6.8,0,11.9,0.5,15.4,1.4c3.5,0.9,6.6,2.7,9.2,5.3c4.6,4.5,7,10.3,7,17.2
		c0,7.4-2.5,13.3-7.4,17.6s-11.7,6.5-20.1,6.5H150.2z M150.2,57.9h4.6c11.2,0,16.8-4.3,16.8-12.9c0-8.4-5.8-12.5-17.4-12.5h-4V57.9z
		"/>
	<path fill="#BEC997" d="M238.7,32.7h-32.5v19.4h31.5v11.5h-31.5v27.1h32.5v11.5H194V21.2h44.7V32.7z"/>
	<path fill="#BEC997" d="M281.4,67.6l25.1,34.5h-14.9L268.4,69h-2.2v33.1H254V21.2h14.3c10.7,0,18.4,2,23.2,6
		c5.2,4.5,7.9,10.4,7.9,17.7c0,5.7-1.6,10.7-4.9,14.8S286.8,66.5,281.4,67.6z M266.2,58.3h3.9c11.6,0,17.4-4.4,17.4-13.3
		c0-8.3-5.6-12.4-16.9-12.4h-4.4V58.3z"/>
</g>
<g>
	<path fill="#F3A28B" d="M380.2,93c-2.1,1.7-4.1,3.2-6.1,4.5c-0.9,0.6-1.7,1.1-2.7,1.6c-0.9,0.5-1.9,1-2.7,1.4
		c-0.9,0.4-1.8,0.8-2.6,1c-0.9,0.3-1.6,0.4-2.3,0.4c-0.4,0-1-0.1-1.9-0.3c-0.8-0.2-1.7-0.6-2.7-1.1c-1-0.6-1.9-1.4-2.9-2.5
		c-1-1.1-1.8-2.5-2.5-4.3c-1.1,1.1-2.2,2.2-3.4,3.2c-1.2,1-2.5,1.9-3.8,2.6c-1.3,0.7-2.6,1.3-3.9,1.8c-1.3,0.4-2.7,0.7-4,0.7
		c-1.9,0-3.5-0.4-4.9-1.2c-1.4-0.8-2.5-1.8-3.4-3.1c-0.9-1.3-1.6-2.8-2.1-4.5c-0.5-1.7-0.7-3.4-0.7-5.1c0-1.9,0.2-3.8,0.7-5.7
		c0.5-1.9,1.2-3.8,2.1-5.6c0.9-1.8,1.9-3.7,3.1-5.7c1.1-2,2.6-3.8,4.5-5.4c1.8-1.6,3.7-2.9,5.7-3.7c2-0.8,4-1.3,6.3-1.5
		c0.1-3.8,0.5-7.1,1.2-10c0.7-2.9,1.5-6,2.3-9.3c0.8-3.3,1.9-6.4,3.2-9.2c1.3-2.8,2.7-5.2,4.3-7.3c1.5-2,3.2-3.6,5-4.8
		c1.8-1.1,3.6-1.7,5.5-1.7c1.4,0,2.5,0.4,3.5,1.1c1,0.7,1.7,1.7,2.3,2.8c0.6,1.2,1,2.6,1.3,4.1s0.4,3.2,0.4,4.8c0,1,0,2.1,0,3.2
		c-0.1,4.2-0.7,8.1-1.9,11.7c-1.2,3.6-2.4,7.2-3.6,10.7c-1.2,3.5-2.6,7-4.3,10.4c-2.5,5.3-4.2,8.8-4.9,10.7
		c-0.2,0.4-0.3,0.9-0.5,1.5c-0.2,0.6-0.3,1.2-0.4,1.9c-0.1,0.7-0.3,1.4-0.3,2.1c-0.1,0.7-0.1,1.4-0.1,2.1c0,0.9,0.1,1.7,0.2,2.4
		c0.1,0.8,0.3,1.5,0.5,2.1c0.2,0.6,0.5,1.1,0.9,1.4c0.4,0.3,0.9,0.5,1.4,0.5c0.5,0,1.2-0.1,1.8-0.3c0.7-0.2,1.3-0.5,2.1-0.9
		c0.7-0.4,1.5-0.8,2.2-1.3c0.7-0.5,1.5-1,2.2-1.5c1.6-1.2,3.3-2.5,5-4L380.2,93z M349.9,67.2c-1.9,0.9-3.6,2.2-5.1,3.7
		c-1.5,1.5-2.8,3.6-3.8,6.1c-1,2.5-1.8,4.7-2.3,6.5c-0.5,1.8-0.8,3.5-0.8,4.9c0,0.5,0.1,0.9,0.2,1.4c0.1,0.5,0.4,0.9,0.7,1.2
		c0.3,0.4,0.8,0.7,1.5,0.9c0.6,0.2,1.5,0.3,2.5,0.3c0.5,0,1-0.1,1.5-0.3c0.5-0.2,1-0.5,1.5-0.9c0.5-0.4,0.9-0.8,1.3-1.3
		c0.4-0.5,0.8-1,1.2-1.5c0.8-1.2,1.6-2.5,2.2-4c-0.1-0.4-0.2-1.1-0.2-2c-0.1-0.9-0.1-2.3-0.1-4.1c0-1.8-0.1-3.3-0.1-4.5
		c0-1.2,0-2.2-0.1-3.2c0-1,0-1.8-0.1-2.4C349.9,67.5,349.9,67.2,349.9,67.2z M370.5,37.4c0.2-2,0.3-3.7,0.3-4.9
		c0-1.6-0.1-2.7-0.4-3.3c-0.3-0.6-0.7-0.9-1.2-0.9c-0.9,0-1.8,0.6-2.6,1.8c-0.8,1.2-1.4,2.7-1.9,4.6c-0.5,1.9-1,3.9-1.5,6.1
		c-0.6,2.2-1,4.3-1.2,6.4c-0.3,2.1-0.5,4-0.6,5.7c-0.2,1.7-0.3,2.9-0.3,3.6c-0.1,1.4-0.2,2.8-0.3,4.2c-0.1,1.3-0.1,2.6-0.2,3.7
		c0,1.1,0,2.1,0,2.9s0,1.5,0,1.9v0.4c1.6-3.9,3.1-7.7,4.5-11.6c0.6-1.6,1.1-3.3,1.7-5.1c0.6-1.8,1.1-3.6,1.7-5.3
		c0.5-1.8,1-3.5,1.4-5.2C370.1,40.6,370.3,39,370.5,37.4z"/>
	<path fill="#F3A28B" d="M375.2,93c0-1.3,0.1-2.8,0.2-4.5c0.1-1.7,0.3-3.5,0.6-5.4c0.2-1.9,0.5-3.8,0.9-5.8c0.3-2,0.8-4.1,1.3-6.3
		c0.5-2.2,1-4.1,1.4-5.6c0.4-1.5,0.8-2.7,1.1-3.7c0.2-0.6,0.5-1.2,0.7-1.5c0.2-0.4,0.5-0.7,0.8-0.9c0.3-0.2,0.7-0.4,1.1-0.4
		c0.5-0.1,1-0.1,1.7-0.1c0.8,0,1.3,0,1.8,0.1c0.4,0.1,0.7,0.3,0.9,0.5c0.2,0.3,0.3,0.7,0.4,1.2c0,0.5,0.1,1.2,0.1,2.1
		c0,1.1-0.1,2.6-0.2,4.6s-0.2,3.7-0.1,5.2h0.5c0.6-1.2,1.3-2.7,2.2-4.6c0.9-1.9,1.8-3.5,2.7-4.7c1-1.2,2.1-2.3,3.3-3.2
		c1.2-0.9,2.6-1.3,4.2-1.3c0.6,0,1.1,0.1,1.6,0.3c0.5,0.2,1,0.5,1.4,0.8c0.4,0.3,0.7,0.8,0.9,1.3c0.2,0.5,0.3,1.1,0.3,1.7
		c0,0.5-0.1,1.2-0.2,2.1c-0.1,0.9-0.4,2-0.7,3.5c-0.3,1.4-0.6,2.6-0.7,3.5c-0.1,0.9-0.2,1.7-0.2,2.3c0,1,0.1,1.9,0.3,2.6
		c0.2,0.7,0.5,1.3,0.8,1.7c0.3,0.4,0.7,0.7,1.1,0.9c0.4,0.2,0.9,0.3,1.3,0.3c1.3,0,2.7-0.3,4.1-0.9c1.4-0.6,2.7-1.2,3.8-2
		c1.4-0.8,2.7-1.8,4-2.9l-0.7,10.2c-0.8,0.5-1.6,1-2.6,1.7c-1,0.6-2,1.2-3.1,1.7c-1.1,0.5-2.2,1-3.4,1.4c-1.2,0.4-2.4,0.5-3.6,0.5
		c-2.2,0-3.9-0.4-5.3-1.3c-1.3-0.9-2.4-2.1-3.2-3.5c-0.8-1.4-1.4-3.1-1.7-4.8c-0.4-1.8-0.7-3.6-0.9-5.4h-0.7l-7.8,21.8
		c-0.4,1.1-0.8,2.1-1.2,2.8c-0.4,0.7-0.7,1.4-1.1,1.8c-0.4,0.5-0.8,0.8-1.2,1c-0.4,0.2-0.9,0.3-1.4,0.3c-1.2,0-2.2-0.3-2.9-0.8
		c-0.7-0.5-1.3-1.2-1.7-2.1c-0.4-0.9-0.7-1.8-0.8-2.9C375.3,95.3,375.2,94.2,375.2,93z"/>
	<path fill="#F3A28B" d="M427.2,102.1c-2.7,0-5.1-0.5-7.1-1.5c-2-1-3.7-2.4-5.1-4.1c-1.4-1.7-2.4-3.7-3.1-5.9c-0.7-2.2-1-4.6-1-7
		c0-1.6,0.3-3.5,0.9-5.8c0.6-2.2,1.2-4.2,1.9-5.9c0.7-1.7,1.5-3.4,2.5-4.9c1-1.6,2.1-2.9,3.5-4.1c1.3-1.2,2.8-2.1,4.4-2.8
		c1.6-0.7,3.5-1.1,5.5-1.1c1.6,0,3.1,0.3,4.5,0.8c1.4,0.5,2.6,1.3,3.7,2.2c1,0.9,1.8,2.1,2.4,3.4c0.6,1.3,0.9,2.8,0.9,4.5
		c0,1.8-0.6,3.7-1.8,5.9c-1.2,2.2-2.6,4.1-4.1,5.6c-1.6,1.6-3.5,3-5.6,4.2c-2.2,1.2-4.5,2.2-7.1,2.9c0.4,0.8,0.9,1.4,1.3,1.9
		c0.4,0.5,0.9,0.9,1.3,1.2c0.4,0.3,0.9,0.5,1.4,0.6c0.5,0.1,1,0.2,1.6,0.2c1.7,0,3.6-0.3,5.5-1c1.9-0.7,3.8-1.5,5.7-2.6
		c1.8-1,3.6-2.1,5.2-3.4c1.6-1.2,3-2.4,4.1-3.4l5.6,5.7c-2.6,2.7-5.3,5.1-8.2,7.2c-1.3,0.9-2.6,1.8-4,2.7c-1.4,0.9-3,1.6-4.5,2.3
		c-1.6,0.7-3.2,1.2-4.9,1.6C430.7,101.9,428.9,102.1,427.2,102.1z M421.4,81.3c1,0,2.2-0.3,3.4-0.8c1.2-0.5,2.4-1.2,3.5-2
		c1.1-0.8,2.1-1.9,3.1-3.3c1-1.4,1.5-2.6,1.5-3.5c0-1.3-0.2-2.3-0.7-3.2c-0.5-0.8-1.1-1.2-1.8-1.2c-1.3,0-2.3,0.2-3.2,0.7
		s-1.6,1-2.2,1.8c-0.6,0.7-1.1,1.6-1.5,2.5c-0.4,0.9-0.8,2.1-1.3,3.4s-0.8,2.5-0.8,3.4C421.4,79.9,421.4,80.7,421.4,81.3z"/>
	<path fill="#F3A28B" d="M492.6,91.3c-0.7,0.9-1.6,2.1-2.7,3.3c-1.1,1.3-2.4,2.5-3.8,3.6c-1.4,1.1-2.9,2.1-4.5,2.9
		c-1.6,0.8-3.2,1.2-4.8,1.2c-1.9,0-3.5-0.6-4.8-1.8s-2.4-3-3.3-5.3c-0.7,0.8-1.6,1.6-2.6,2.5c-1,0.8-2.1,1.6-3.4,2.3
		c-1.2,0.7-2.5,1.2-3.8,1.7c-1.3,0.4-2.6,0.6-4,0.6c-1.4,0-2.8-0.3-4.1-0.9c-1.3-0.6-2.5-1.4-3.5-2.5c-1-1.1-1.8-2.4-2.4-3.9
		c-0.6-1.5-0.9-3.3-0.9-5.2c0-2.2,0.3-4.4,0.9-6.7c0.6-2.3,1.6-4.8,2.9-7.4c1.3-2.7,2.7-5,4.2-6.9c1.5-1.9,3.1-3.6,4.9-5.1
		c1.8-1.5,3.6-2.6,5.6-3.5c2-0.9,3.9-1.3,6-1.3c0.7,0,1.2,0.1,1.6,0.4c0.4,0.3,0.7,0.6,0.9,0.9c0.3,0.3,0.5,0.7,0.7,1
		c0.2,0.3,0.5,0.6,0.9,0.7c0.3,0.1,0.7,0.2,1.1,0.3c0.4,0,0.7,0.1,1.1,0.1c0.3,0,0.7,0,1,0c0.3,0,0.7,0,1,0c0.4,0,0.9,0,1.2,0.1
		c0.4,0.1,0.7,0.3,1,0.6c0.3,0.3,0.5,0.7,0.7,1.2c0.2,0.5,0.2,1.3,0.2,2.2c0,1.4-0.1,2.9-0.4,4.6c-0.3,1.7-0.6,3.4-1,5.2
		c-0.4,1.8-0.8,3.8-1.3,6.1c-0.5,2.3-0.7,4.2-0.7,5.8c0,1.3,0.1,2.4,0.4,3.1c0.3,0.8,0.8,1.1,1.6,1.1c0.6,0,1.3-0.2,1.9-0.5
		c0.7-0.3,1.3-0.7,2-1.2c0.7-0.5,1.4-1,2.1-1.7c0.7-0.6,1.3-1.3,1.9-1.9c1.4-1.6,2.9-3.3,4.3-5.3L492.6,91.3z M455.1,87.9
		c0,0.8,0.1,1.5,0.2,2.2c0.1,0.7,0.3,1.3,0.5,1.9c0.3,0.6,0.6,1,1.1,1.4s1,0.5,1.7,0.5c1.1,0,2.1-0.5,2.9-1.4
		c0.9-0.9,1.6-2.1,2.3-3.4c0.6-1.3,1.2-2.7,1.6-4.1c0.4-1.4,0.6-2.6,0.8-3.5l3.3-14.2c-1.2,0-2.4,0.3-3.5,0.9
		c-1.1,0.6-2.2,1.4-3.2,2.4c-1,1-1.9,2.2-2.8,3.5c-0.8,1.3-1.7,2.9-2.5,4.8c-0.8,1.9-1.4,3.6-1.7,5
		C455.3,85.2,455.1,86.6,455.1,87.9z"/>
	<path fill="#F3A28B" d="M505.6,94.2c0-0.4,0-0.9,0.1-1.6c0.1-0.7,0.1-1.5,0.3-2.4c0.1-0.9,0.2-1.9,0.4-2.9c0.1-1,0.3-2,0.4-3
		c0.3-2.3,0.7-4.9,1.2-7.5h-0.7c-0.3,0.4-0.8,1.1-1.2,2c-0.5,0.9-1.1,2.2-1.9,3.9c-0.8,1.7-1.9,3.9-3.1,6.6c-1.3,2.7-2.9,6-4.9,10
		c-0.6,1.2-1.3,1.9-2,2.4c-0.8,0.4-1.6,0.6-2.6,0.6c-1.2,0-2.2-0.2-2.9-0.7c-0.7-0.5-1.3-1.2-1.7-2c-0.4-0.8-0.7-1.8-0.8-2.8
		c-0.1-1.1-0.2-2.2-0.2-3.3c0-1.2,0.1-2.6,0.2-4.3c0.1-1.6,0.3-3.4,0.6-5.2s0.6-3.9,1-6.2c0.4-2.3,0.8-4.4,1.2-6.1
		c0.3-1.7,0.7-3.3,1-4.8c0.3-1.4,0.7-2.6,1-3.5c0.3-0.9,0.6-1.7,0.8-2.2c0.3-0.6,0.6-1,0.9-1.3c0.3-0.3,0.7-0.5,1.2-0.6
		c0.5-0.1,1.1-0.2,1.8-0.2c1.1,0,2,0,2.6,0.1c0.6,0.1,1.1,0.3,1.4,0.5c0.3,0.3,0.5,0.7,0.5,1.2s0.1,1.3,0.1,2.2c0,0.5,0,1.1-0.1,1.7
		c0,0.6-0.1,1.3-0.2,2.1c-0.1,0.7-0.1,1.5-0.3,2.2c-0.2,1.5-0.3,2.2-0.3,2.3c-0.4,2-0.8,4.2-1.3,6.7l0.5,0.5
		c0.1-0.1,0.4-0.9,1.2-2.3c0.7-1.5,1.5-2.9,2.3-4.4c0.8-1.4,1.7-3,2.7-4.5c1-1.6,1.9-3,2.8-4.2c0.8-1.2,1.7-2.2,2.7-3
		c0.9-0.8,2.1-1.2,3.4-1.2c1.2,0,2.3,0.4,3.1,1.1c0.9,0.7,1.3,1.7,1.3,3.1c0,1.1-0.1,2.2-0.2,3.3c-0.2,1.3-0.3,2.3-0.5,3
		c-0.2,0.8-0.4,1.7-0.7,2.8c-0.2,1-0.6,2.4-1.1,4.2c-0.1,0.3-0.2,0.7-0.3,1.3c0,0.2,0,0.3,0,0.3l0.5,0.5c0.1-0.1,0.5-0.9,1.2-2.3
		c0.8-1.5,1.6-2.9,2.5-4.3c0.9-1.4,1.8-3,2.8-4.5c1-1.6,1.9-3,2.8-4.2c0.8-1.2,1.7-2.2,2.5-3c0.8-0.8,1.9-1.2,3.1-1.2
		c1.4,0,2.5,0.4,3.5,1.1c0.9,0.7,1.4,1.7,1.4,3.1c0,2-0.1,3.9-0.3,5.8c-0.2,1.8-0.5,3.8-0.9,6c-0.4,2.2-0.7,4.2-0.9,6
		c-0.2,1.8-0.3,3.7-0.3,5.7c0,1.6,0.2,2.9,0.6,3.9c0.4,1,0.9,1.5,1.5,1.5c0.6,0,1.3-0.1,1.9-0.4c0.7-0.3,1.4-0.6,2.1-1
		c0.7-0.4,1.4-0.9,2.1-1.4c0.7-0.5,1.3-1.1,1.9-1.7c1.4-1.4,2.8-2.9,4.2-4.6l0.7,10.4c-1.3,1-2.6,2-3.8,3.1c-1.3,1.1-2.6,2-4,2.9
		c-1.4,0.9-3,1.6-4.7,2.1c-1.7,0.6-3.6,0.8-5.7,0.8c-1,0-1.9-0.3-2.6-1c-0.7-0.7-1.3-1.6-1.7-2.8c-0.4-1.2-0.8-2.6-0.9-4.2
		c-0.2-1.6-0.3-3.4-0.3-5.3c0-1.8,0.1-3.8,0.2-5.9c0.1-2.1,0.3-4.2,0.5-6.3h-0.7L515.7,99c-0.8,1.2-1.6,2-2.5,2.5
		c-0.9,0.4-2,0.6-3.2,0.6c-0.9,0-1.7-0.2-2.2-0.7c-0.6-0.5-1-1.1-1.3-1.9c-0.3-0.8-0.5-1.6-0.6-2.6C505.7,96,505.6,95.1,505.6,94.2z
		"/>
	<path fill="#F3A28B" d="M543.2,85.6c1.6-1.4,3-2.6,4-3.5s2-2,3.1-3.3c1-1.3,1.8-2.3,2.4-3.1c0.6-0.8,1.3-1.7,2.1-2.8s1.8-2.4,3-4
		s2.7-3.5,4.5-5.9c0.4-0.5,0.8-1,1.3-1.5c0.5-0.5,1-0.9,1.5-1.3c0.6-0.4,1.2-0.7,1.9-1c0.7-0.2,1.4-0.4,2.3-0.4
		c1.4,0,2.5,0.2,3.2,0.5c0.8,0.3,1.3,0.7,1.7,1.1c0.3,0.4,0.6,0.9,0.6,1.4c0.1,0.5,0.1,0.9,0.1,1.3c0,0.7-0.3,1.5-0.8,2.3
		c-0.6,0.9-1.2,1.7-1.8,2.5c-0.7,0.8-1.3,1.5-1.9,2.2c-0.6,0.7-0.9,1.2-1,1.5c0,2.9,1.3,5.4,1.8,8.3c0.7,3.9,0.2,7.6,0.2,11.5
		c1-0.7,2.2-1.3,3.4-1.9c1.2-0.6,2.5-1,3.8-1.8c5.2-3.1,6,5.6,1.9,8.3c-2.2,1.5-4.8,2.8-7.4,3.7c-2.6,0.9-5.3,1.6-7.9,2.1
		c-2.7,0.5-5.2,0.8-7.6,0.8c-1.7,0-3.3-0.2-4.8-0.5c-1.5-0.3-2.8-0.8-3.9-1.4c-1.1-0.7-2-1.5-2.7-2.6c-0.7-1.1-1.1-2.3-1.3-3.8
		c-0.4,0.1-0.8,0.1-1.2,0.2c-0.4,0-0.8,0-1.2,0c-0.5,0-0.9,0-1.3,0c-0.4,0-0.8-0.1-1-0.3c-0.3-0.2-0.5-0.5-0.7-0.9
		c-0.2-0.4-0.3-1-0.3-1.8c0-0.7,0.2-1.4,0.5-2c0.3-0.6,0.8-1.1,1.2-1.6s0.9-0.9,1.4-1.2C542.6,86.1,543,85.8,543.2,85.6z
		 M548.7,91.3c0.3,0,0.7,0.2,1.2,0.7c0.4,0.4,0.9,0.9,1.5,1.5c0.6,0.5,1.2,1,1.9,1.5c0.7,0.4,1.6,0.7,2.5,0.7c1.1,0,2.1-0.2,2.8-0.6
		c0.7-0.4,1.3-0.9,1.8-1.5c1.5-2.2,1.6-5.1,1.4-7.6c-0.1-1.3-0.3-2.6-0.5-3.9c-0.1-0.6-0.9-2.9-0.4-3.4
		C560.8,78.6,548.7,91.3,548.7,91.3z"/>
</g>
<g>
	<g>
		<g>
			<polygon fill="#BEC997" points="77.9,102.1 65.1,102.1 90.9,21.2 102.3,21.2 127.7,102.1 115.3,102.1 96.6,42.8 			"/>
		</g>
	</g>
	<g>
		<rect x="78.7" y="73.3" fill="#BEC997" width="32.1" height="11.9"/>
	</g>
</g>
</svg>
